<svg width="461" height="407" viewBox="0 0 461 407" fill="none" xmlns="http://www.w3.org/2000/svg">
<g filter="url(#filter0_d)">
<path d="M57.131 105.342C57.367 105.342 57.607 105.325 57.848 105.29L141.17 93.3246C147.643 92.3896 154.27 91.9166 160.867 91.9166C173.325 91.9166 185.725 93.5986 197.724 96.9166C200.383 97.6516 203.14 96.0916 203.876 93.4296C204.612 90.7676 203.051 88.0136 200.389 87.2776C187.522 83.7196 174.225 81.9166 160.867 81.9166C153.793 81.9166 146.686 82.4246 139.745 83.4266L56.427 95.3906C53.694 95.7836 51.796 98.3176 52.189 101.051C52.546 103.544 54.684 105.342 57.131 105.342Z" fill="#3F51B5"/>
<path d="M262.936 96.9166C281.451 91.7976 300.478 90.5896 319.494 93.3256L402.812 105.29C403.053 105.325 403.292 105.342 403.529 105.342C405.976 105.342 408.115 103.544 408.472 101.052C408.865 98.3186 406.967 95.7846 404.234 95.3916L320.917 83.4276C300.53 80.4936 280.123 81.7896 260.272 87.2786C257.61 88.0146 256.049 90.7686 256.785 93.4306C257.521 96.0926 260.277 97.6526 262.936 96.9166Z" fill="#3F51B5"/>
<path d="M57.131 139.705C57.367 139.705 57.607 139.688 57.848 139.653L141.17 127.688C147.643 126.753 154.27 126.28 160.867 126.28C173.325 126.28 185.725 127.962 197.724 131.28C200.383 132.016 203.14 130.455 203.876 127.793C204.612 125.131 203.051 122.377 200.389 121.641C187.522 118.083 174.225 116.28 160.867 116.28C153.793 116.28 146.686 116.788 139.745 117.79L56.427 129.754C53.694 130.147 51.796 132.681 52.189 135.414C52.546 137.907 54.684 139.705 57.131 139.705Z" fill="#3F51B5"/>
<path d="M262.936 131.28C281.451 126.161 300.48 124.954 319.494 127.689L402.812 139.653C403.053 139.688 403.292 139.705 403.529 139.705C405.976 139.705 408.115 137.907 408.472 135.415C408.865 132.682 406.967 130.148 404.234 129.755L320.917 117.791C300.53 114.857 280.125 116.152 260.272 121.642C257.61 122.378 256.049 125.132 256.785 127.794C257.521 130.456 260.277 132.016 262.936 131.28Z" fill="#3F51B5"/>
<path d="M57.131 174.068C57.367 174.068 57.607 174.051 57.848 174.016L141.17 162.051C147.643 161.117 154.27 160.643 160.867 160.643C173.325 160.643 185.726 162.325 197.724 165.643C200.383 166.379 203.14 164.818 203.876 162.156C204.612 159.494 203.051 156.74 200.389 156.004C187.523 152.446 174.226 150.643 160.867 150.643C153.794 150.643 146.686 151.151 139.745 152.153L56.427 164.117C53.694 164.51 51.796 167.044 52.189 169.777C52.546 172.27 54.684 174.068 57.131 174.068Z" fill="#3F51B5"/>
<path d="M262.936 165.643C281.452 160.524 300.483 159.317 319.494 162.052L402.812 174.016C403.053 174.051 403.292 174.068 403.529 174.068C405.976 174.068 408.115 172.27 408.472 169.778C408.865 167.045 406.967 164.511 404.234 164.118L320.917 152.154C300.527 149.22 280.123 150.516 260.272 156.005C257.61 156.741 256.049 159.495 256.785 162.157C257.521 164.819 260.277 166.379 262.936 165.643Z" fill="#3F51B5"/>
<path d="M57.131 208.431C57.367 208.431 57.607 208.414 57.848 208.379L141.17 196.414C147.643 195.479 154.27 195.006 160.867 195.006C173.325 195.006 185.725 196.688 197.724 200.006C200.383 200.741 203.14 199.181 203.876 196.519C204.612 193.857 203.051 191.103 200.389 190.367C187.522 186.809 174.225 185.006 160.867 185.006C153.793 185.006 146.686 185.514 139.745 186.516L56.427 198.48C53.694 198.873 51.796 201.407 52.189 204.14C52.546 206.633 54.684 208.431 57.131 208.431Z" fill="#3F51B5"/>
<path d="M262.936 200.006C281.451 194.887 300.478 193.679 319.494 196.415L402.812 208.379C403.053 208.414 403.292 208.431 403.529 208.431C405.976 208.431 408.115 206.633 408.472 204.141C408.865 201.408 406.967 198.874 404.234 198.481L320.917 186.517C300.53 183.583 280.123 184.879 260.272 190.368C257.61 191.104 256.049 193.858 256.785 196.52C257.521 199.181 260.277 200.741 262.936 200.006Z" fill="#3F51B5"/>
<path d="M57.131 242.794C57.368 242.794 57.607 242.777 57.848 242.742L141.169 230.777C147.642 229.843 154.269 229.369 160.866 229.369C173.324 229.369 185.724 231.051 197.723 234.369C200.382 235.104 203.139 233.544 203.875 230.882C204.611 228.22 203.05 225.466 200.388 224.73C187.521 221.172 174.224 219.369 160.866 219.369C153.793 219.369 146.685 219.877 139.744 220.879L56.426 232.844C53.693 233.237 51.795 235.771 52.188 238.504C52.546 240.996 54.684 242.794 57.131 242.794Z" fill="#3F51B5"/>
<path d="M262.936 234.369C281.452 229.25 300.483 228.043 319.494 230.778L402.812 242.742C403.053 242.777 403.292 242.794 403.529 242.794C405.976 242.794 408.115 240.996 408.472 238.504C408.865 235.771 406.967 233.237 404.234 232.844L320.917 220.88C300.527 217.946 280.123 219.242 260.272 224.731C257.61 225.467 256.049 228.221 256.785 230.883C257.521 233.544 260.277 235.104 262.936 234.369Z" fill="#3F51B5"/>
<path d="M57.131 277.157C57.367 277.157 57.607 277.14 57.848 277.105L141.17 265.14C147.645 264.205 154.272 263.732 160.867 263.732C173.325 263.732 185.725 265.414 197.724 268.732C200.383 269.468 203.14 267.907 203.876 265.245C204.612 262.583 203.051 259.829 200.389 259.093C187.522 255.535 174.225 253.731 160.867 253.731C153.795 253.731 146.688 254.239 139.745 255.241L56.427 267.205C53.694 267.598 51.796 270.132 52.189 272.865C52.546 275.359 54.684 277.157 57.131 277.157Z" fill="#3F51B5"/>
<path d="M262.937 268.732C281.45 263.613 300.478 262.405 319.494 265.141L402.812 277.105C403.053 277.14 403.292 277.157 403.529 277.157C405.976 277.157 408.115 275.359 408.472 272.867C408.865 270.134 406.967 267.6 404.234 267.207L320.917 255.243C300.53 252.309 280.124 253.604 260.271 259.094C257.61 259.83 256.049 262.584 256.785 265.246C257.521 267.907 260.274 269.467 262.937 268.732Z" fill="#3F51B5"/>
<path d="M160.866 298.095C173.324 298.095 185.724 299.777 197.723 303.095C200.382 303.831 203.139 302.27 203.875 299.608C204.611 296.946 203.05 294.192 200.388 293.456C187.521 289.898 174.224 288.095 160.866 288.095C153.792 288.095 146.685 288.603 139.744 289.605L56.426 301.569C53.693 301.962 51.795 304.496 52.188 307.229C52.546 309.721 54.684 311.519 57.131 311.519C57.367 311.519 57.607 311.502 57.848 311.467L141.17 299.502C147.643 298.569 154.269 298.095 160.866 298.095Z" fill="#3F51B5"/>
<path d="M404.233 301.57L320.916 289.606C300.529 286.672 280.122 287.967 260.271 293.457C257.609 294.193 256.048 296.947 256.784 299.609C257.52 302.271 260.277 303.831 262.935 303.096C281.45 297.977 300.477 296.77 319.493 299.505L402.811 311.469C403.052 311.504 403.291 311.521 403.528 311.521C405.975 311.521 408.114 309.723 408.471 307.231C408.864 304.496 406.967 301.962 404.233 301.57Z" fill="#3F51B5"/>
<path d="M451.66 90.4836H439.906V66.5016C439.906 64.0146 438.079 61.9056 435.617 61.5526L320.916 45.0756C313.923 44.0706 306.873 43.5846 299.83 43.5936V5.00063C299.83 3.11963 298.774 1.39862 297.099 0.544624C295.423 -0.309376 293.41 -0.149377 291.89 0.956623L278.33 10.8176L264.77 0.956623C263.251 -0.149377 261.237 -0.308376 259.561 0.544624C257.885 1.39762 256.83 3.11963 256.83 5.00063V49.9606C247.686 52.7136 238.798 56.3386 230.33 60.8166C202.724 46.2206 170.67 40.6336 139.744 45.0756L25.043 61.5526C22.582 61.9066 20.754 64.0146 20.754 66.5016V90.4836H9C6.239 90.4836 4 92.7226 4 95.4836V393.487C4 394.876 4.578 396.203 5.596 397.149C6.524 398.012 7.742 398.487 9 398.487C9.122 398.487 9.243 398.483 9.365 398.474L209.844 383.821H250.817L451.297 398.474C451.419 398.483 451.54 398.487 451.661 398.487C452.92 398.487 454.138 398.012 455.065 397.149C456.083 396.203 456.661 394.876 456.661 393.487V95.4836C456.66 92.7216 454.422 90.4836 451.66 90.4836ZM319.494 54.9736L429.906 70.8336V346.062L320.916 330.406C291.84 326.229 261.766 330.92 235.33 343.628V69.4866C261.003 56.0006 290.769 50.8476 319.494 54.9736ZM44.86 354.139L141.166 340.305C169.89 336.18 199.656 341.331 225.33 354.818V360.411C209.703 353.298 192.049 349.814 171.62 349.814C161.71 349.814 151.286 350.619 139.652 352.29L44.86 367.818V354.139ZM214.66 366.824C219.266 368.528 223.68 370.538 227.909 372.879C229.416 373.712 231.243 373.712 232.751 372.879C236.987 370.535 241.395 368.511 246 366.802V373.821H214.66V366.824ZM235.33 360.4V354.818C261.005 341.331 290.773 336.179 319.494 340.305L415.8 354.139V367.819L320.92 352.275C285.942 347.258 258.479 349.836 235.33 360.4ZM266.83 14.8196L275.39 21.0446C277.142 22.3196 279.519 22.3196 281.271 21.0446L289.831 14.8196V43.9436C282.09 44.4746 274.395 45.6066 266.831 47.3256V14.8196H266.83ZM30.754 70.8346L141.166 54.9746C169.89 50.8486 199.656 56.0006 225.33 69.4876V343.64C205.191 333.959 182.948 328.92 160.634 328.92C153.657 328.92 146.671 329.412 139.744 330.407L30.754 346.063V70.8346V70.8346ZM14 388.108V100.484H20.754V351.832C20.754 353.282 21.383 354.661 22.48 355.611C23.575 356.56 25.031 356.987 26.465 356.782L34.86 355.576V373.705C34.86 375.172 35.505 376.566 36.623 377.516C37.741 378.466 39.219 378.877 40.668 378.64L141.17 362.175C152.23 360.587 162.19 359.816 171.619 359.816C183.648 359.816 194.599 361.104 204.659 363.702V374.175L14 388.108ZM446.66 388.108L256 374.173V363.677C273.854 359.054 294.567 358.597 319.401 362.158L419.991 378.638C420.261 378.682 420.531 378.704 420.8 378.704C421.977 378.704 423.127 378.288 424.037 377.515C425.155 376.565 425.8 375.172 425.8 373.704V355.575L434.196 356.781C434.433 356.815 434.671 356.832 434.907 356.832C436.102 356.832 437.266 356.403 438.181 355.611C439.277 354.661 439.907 353.283 439.907 351.832V100.484H446.661V388.108H446.66Z" fill="#3F51B5"/>
</g>
<defs>
<filter id="filter0_d" x="0" y="0" width="460.661" height="406.487" filterUnits="userSpaceOnUse" color-interpolation-filters="sRGB">
<feFlood flood-opacity="0" result="BackgroundImageFix"/>
<feColorMatrix in="SourceAlpha" type="matrix" values="0 0 0 0 0 0 0 0 0 0 0 0 0 0 0 0 0 0 127 0"/>
<feOffset dy="4"/>
<feGaussianBlur stdDeviation="2"/>
<feColorMatrix type="matrix" values="0 0 0 0 0 0 0 0 0 0 0 0 0 0 0 0 0 0 0.25 0"/>
<feBlend mode="normal" in2="BackgroundImageFix" result="effect1_dropShadow"/>
<feBlend mode="normal" in="SourceGraphic" in2="effect1_dropShadow" result="shape"/>
</filter>
</defs>
</svg>
