<svg width="184" height="440" viewBox="0 0 184 440" fill="none" xmlns="http://www.w3.org/2000/svg">
<path d="M91.9095 98.8125C64.6673 98.8125 42.5032 76.6484 42.5032 49.4062C42.5032 22.1641 64.6673 0 91.9095 0C119.152 0 141.316 22.1641 141.316 49.4062C141.316 76.6484 119.152 98.8125 91.9095 98.8125Z" fill="#3F51B5"/>
<path d="M141.316 49.4062C141.316 22.1641 119.152 0 91.9095 0V98.8125C119.152 98.8125 141.316 76.6484 141.316 49.4062Z" fill="#3F51B5"/>
<path d="M57.5032 439.719C49.2181 439.719 42.5032 433 42.5032 424.719V296.465C42.5032 288.18 49.2181 281.465 57.5032 281.465C65.7884 281.465 72.5032 288.18 72.5032 296.465V424.719C72.5032 433 65.7884 439.719 57.5032 439.719V439.719Z" fill="#3F51B5"/>
<path d="M126.316 439.719C118.031 439.719 111.316 433 111.316 424.719V296.465C111.316 288.18 118.031 281.465 126.316 281.465C134.601 281.465 141.316 288.18 141.316 296.465V424.719C141.316 433 134.601 439.719 126.316 439.719V439.719Z" fill="#3F51B5"/>
<path d="M151.257 311.461H32.5618C28.1009 311.461 23.8704 309.477 21.0228 306.047C18.1712 302.613 16.9954 298.094 17.8157 293.711L26.9368 244.859H14.9993C9.9251 244.859 5.19854 242.297 2.429 238.047C-0.336622 233.797 -0.770215 228.438 1.28057 223.797L43.1712 128.969C51.6907 109.68 70.8235 97.2148 91.9095 97.2148C112.999 97.2148 132.128 109.68 140.652 128.973L182.542 223.801C184.589 228.438 184.156 233.797 181.39 238.047C178.62 242.297 173.89 244.859 168.82 244.859H156.878L166.003 293.711C166.824 298.094 165.648 302.617 162.796 306.047C159.949 309.477 155.718 311.461 151.257 311.461V311.461Z" fill="#3F51B5"/>
</svg>
