<svg width="196" height="138" viewBox="0 0 196 138" fill="none" xmlns="http://www.w3.org/2000/svg">
<path d="M49.5386 70.2383L39.1642 52.6488C38.2759 51.128 36.9577 49.9332 35.4716 49.301L34.8076 49.0188C32.5173 48.0441 30.1994 48.8076 29.1605 50.8795C28.3395 52.5164 28.4223 54.6699 29.38 56.5872L41.4937 80.8405C41.9679 81.7902 42.5412 82.6889 43.1999 83.5163C44.5424 85.2014 46.203 86.5405 48.0139 87.398L50.1104 88.3918C50.3955 88.527 50.684 88.6492 50.9736 88.759L73.1461 97.1683C74.7504 97.7767 76.3384 98.4827 77.9015 99.283L83.9424 102.376L99.4219 93.7948C99.4219 93.7948 94.2319 76.0758 78.8573 74.7993C75.9819 74.5607 73.0749 73.8651 70.2179 72.7816L55.6455 67.2548C54.1738 66.6966 52.6694 66.7954 51.478 67.529C49.2741 68.8871 48.6437 72.0681 50.0062 74.9599L50.0517 75.0577C50.8736 76.8014 52.3068 78.1779 53.9489 78.8007L66.6352 83.6121" fill="#34445C"/>
<path d="M146.852 69.9491L156.865 51.9777C157.722 50.4241 159.011 49.1834 160.476 48.5012L161.131 48.1967C163.388 47.145 165.702 47.835 166.768 49.8783C167.61 51.4925 167.563 53.6541 166.643 55.6074L155.013 80.316C154.558 81.2835 154.003 82.2031 153.363 83.0541C152.058 84.7871 150.431 86.1836 148.647 87.1023L146.581 88.1668C146.301 88.3116 146.016 88.4435 145.731 88.563L123.854 97.7153C122.271 98.3775 120.706 99.137 119.168 99.9901L113.22 103.287L97.7112 95.1889C97.7112 95.1889 102.574 77.2564 117.818 75.4761C120.669 75.1434 123.544 74.3513 126.362 73.1721L140.74 67.1569C142.192 66.5495 143.687 66.5995 144.882 67.2962C147.093 68.5859 147.771 71.7544 146.465 74.6978L146.422 74.7973C145.634 76.5722 144.234 77.9987 142.614 78.6766L130.097 83.9132" fill="#F2D1A5"/>
<g clip-path="url(#clip0)">
<path d="M118.431 8C112.448 8.00056 106.931 11.4764 104 17.0923C101.069 11.4764 95.5516 8.00056 89.569 8C80.4186 8 73 17.1384 73 26.9906C73 51.7358 104 69 104 69C104 69 135 51.7358 135 26.9906C135 17.1384 127.581 8 118.431 8Z" fill="white"/>
<path d="M69.3291 24.931C69.3291 15.3725 76.5027 6.47165 85.7571 5.19109C84.9127 5.075 84.0611 5.01666 83.2084 5.01725C72.8773 5.01725 64.5015 14.5999 64.5015 24.931C64.5015 50.8793 99.5015 68.9827 99.5015 68.9827C99.5015 68.9827 100.407 68.5131 101.915 67.6262C94.008 62.976 69.3291 46.7229 69.3291 24.931Z" fill="#FF5023"/>
</g>
<defs>
<clipPath id="clip0">
<rect x="64.5015" y="2" width="70" height="70" fill="white"/>
</clipPath>
</defs>
</svg>
