<svg width="280" height="172" viewBox="0 0 280 172" fill="none" xmlns="http://www.w3.org/2000/svg">
<path d="M3.752 157.112C2.87467 157.112 2.156 156.911 1.596 156.51C1.04533 156.099 0.737333 155.544 0.672 154.844H1.68C1.72667 155.273 1.92733 155.623 2.282 155.894C2.646 156.155 3.13133 156.286 3.738 156.286C4.27 156.286 4.68533 156.16 4.984 155.908C5.292 155.656 5.446 155.343 5.446 154.97C5.446 154.709 5.362 154.494 5.194 154.326C5.026 154.158 4.81133 154.027 4.55 153.934C4.298 153.831 3.95267 153.724 3.514 153.612C2.94467 153.463 2.48267 153.313 2.128 153.164C1.77333 153.015 1.47 152.795 1.218 152.506C0.975333 152.207 0.854 151.811 0.854 151.316C0.854 150.943 0.966 150.597 1.19 150.28C1.414 149.963 1.73133 149.711 2.142 149.524C2.55267 149.337 3.01933 149.244 3.542 149.244C4.36333 149.244 5.026 149.454 5.53 149.874C6.034 150.285 6.30467 150.854 6.342 151.582H5.362C5.334 151.134 5.15667 150.775 4.83 150.504C4.51267 150.224 4.074 150.084 3.514 150.084C3.01933 150.084 2.618 150.201 2.31 150.434C2.002 150.667 1.848 150.957 1.848 151.302C1.848 151.601 1.93667 151.848 2.114 152.044C2.30067 152.231 2.52933 152.38 2.8 152.492C3.07067 152.595 3.43467 152.711 3.892 152.842C4.44267 152.991 4.88133 153.136 5.208 153.276C5.53467 153.416 5.81467 153.621 6.048 153.892C6.28133 154.163 6.40267 154.522 6.412 154.97C6.412 155.381 6.3 155.749 6.076 156.076C5.852 156.393 5.53933 156.645 5.138 156.832C4.73667 157.019 4.27467 157.112 3.752 157.112ZM9.53072 150.182V154.928C9.53072 155.395 9.61939 155.717 9.79672 155.894C9.97405 156.071 10.2867 156.16 10.7347 156.16H11.6307V157H10.5807C9.89005 157 9.37672 156.841 9.04072 156.524C8.70472 156.197 8.53672 155.665 8.53672 154.928V150.182H7.47272V149.356H8.53672V147.438H9.53072V149.356H11.6307V150.182H9.53072ZM16.593 157.112C15.8743 157.112 15.2256 156.953 14.647 156.636C14.0776 156.309 13.625 155.852 13.289 155.264C12.9623 154.667 12.799 153.971 12.799 153.178C12.799 152.385 12.967 151.694 13.303 151.106C13.639 150.509 14.0963 150.051 14.675 149.734C15.2536 149.407 15.9023 149.244 16.621 149.244C17.3396 149.244 17.9883 149.407 18.567 149.734C19.155 150.051 19.6123 150.509 19.939 151.106C20.275 151.694 20.443 152.385 20.443 153.178C20.443 153.962 20.275 154.653 19.939 155.25C19.603 155.847 19.141 156.309 18.553 156.636C17.965 156.953 17.3116 157.112 16.593 157.112ZM16.593 156.258C17.097 156.258 17.5636 156.146 17.993 155.922C18.4223 155.689 18.7676 155.343 19.029 154.886C19.2996 154.419 19.435 153.85 19.435 153.178C19.435 152.506 19.3043 151.941 19.043 151.484C18.7816 151.017 18.4363 150.672 18.007 150.448C17.5776 150.215 17.111 150.098 16.607 150.098C16.103 150.098 15.6363 150.215 15.207 150.448C14.7776 150.672 14.4323 151.017 14.171 151.484C13.919 151.941 13.793 152.506 13.793 153.178C13.793 153.85 13.919 154.419 14.171 154.886C14.4323 155.343 14.773 155.689 15.193 155.922C15.6223 156.146 16.089 156.258 16.593 156.258ZM23.1954 151.036C23.438 150.523 23.8207 150.098 24.3434 149.762C24.8754 149.417 25.5054 149.244 26.2334 149.244C26.924 149.244 27.5447 149.407 28.0954 149.734C28.6554 150.051 29.0894 150.509 29.3974 151.106C29.7147 151.694 29.8734 152.38 29.8734 153.164C29.8734 153.948 29.7147 154.639 29.3974 155.236C29.0894 155.833 28.6554 156.295 28.0954 156.622C27.5447 156.949 26.924 157.112 26.2334 157.112C25.5147 157.112 24.8894 156.944 24.3574 156.608C23.8254 156.263 23.438 155.833 23.1954 155.32V160.612H22.2294V149.356H23.1954V151.036ZM28.8794 153.164C28.8794 152.529 28.7534 151.983 28.5014 151.526C28.2587 151.059 27.9227 150.705 27.4934 150.462C27.064 150.219 26.5787 150.098 26.0374 150.098C25.5147 150.098 25.034 150.224 24.5954 150.476C24.166 150.728 23.8254 151.087 23.5734 151.554C23.3214 152.021 23.1954 152.562 23.1954 153.178C23.1954 153.794 23.3214 154.335 23.5734 154.802C23.8254 155.269 24.166 155.628 24.5954 155.88C25.034 156.132 25.5147 156.258 26.0374 156.258C26.5787 156.258 27.064 156.137 27.4934 155.894C27.9227 155.642 28.2587 155.283 28.5014 154.816C28.7534 154.34 28.8794 153.789 28.8794 153.164ZM38.2344 156.048L40.8104 149.356H41.8464L38.7804 157H37.6744L34.6084 149.356H35.6584L38.2344 156.048ZM43.6647 147.914C43.4687 147.914 43.3007 147.844 43.1607 147.704C43.0207 147.564 42.9507 147.391 42.9507 147.186C42.9507 146.981 43.0207 146.813 43.1607 146.682C43.3007 146.542 43.4687 146.472 43.6647 146.472C43.8607 146.472 44.0287 146.542 44.1687 146.682C44.3087 146.813 44.3787 146.981 44.3787 147.186C44.3787 147.391 44.3087 147.564 44.1687 147.704C44.0287 147.844 43.8607 147.914 43.6647 147.914ZM44.1547 149.356V157H43.1747V149.356H44.1547ZM49.7199 157.112C49.0012 157.112 48.3526 156.953 47.7739 156.636C47.2046 156.309 46.7519 155.852 46.4159 155.264C46.0892 154.667 45.9259 153.971 45.9259 153.178C45.9259 152.385 46.0939 151.694 46.4299 151.106C46.7659 150.509 47.2232 150.051 47.8019 149.734C48.3806 149.407 49.0292 149.244 49.7479 149.244C50.4666 149.244 51.1152 149.407 51.6939 149.734C52.2819 150.051 52.7392 150.509 53.0659 151.106C53.4019 151.694 53.5699 152.385 53.5699 153.178C53.5699 153.962 53.4019 154.653 53.0659 155.25C52.7299 155.847 52.2679 156.309 51.6799 156.636C51.0919 156.953 50.4386 157.112 49.7199 157.112ZM49.7199 156.258C50.2239 156.258 50.6906 156.146 51.1199 155.922C51.5492 155.689 51.8946 155.343 52.1559 154.886C52.4266 154.419 52.5619 153.85 52.5619 153.178C52.5619 152.506 52.4312 151.941 52.1699 151.484C51.9086 151.017 51.5632 150.672 51.1339 150.448C50.7046 150.215 50.2379 150.098 49.7339 150.098C49.2299 150.098 48.7632 150.215 48.3339 150.448C47.9046 150.672 47.5592 151.017 47.2979 151.484C47.0459 151.941 46.9199 152.506 46.9199 153.178C46.9199 153.85 47.0459 154.419 47.2979 154.886C47.5592 155.343 47.8999 155.689 48.3199 155.922C48.7492 156.146 49.2159 156.258 49.7199 156.258ZM56.3363 146.64V157H55.3563V146.64H56.3363ZM65.4715 152.786C65.4715 153.122 65.4622 153.379 65.4435 153.556H59.1015C59.1295 154.135 59.2695 154.629 59.5215 155.04C59.7735 155.451 60.1049 155.763 60.5155 155.978C60.9262 156.183 61.3742 156.286 61.8595 156.286C62.4942 156.286 63.0262 156.132 63.4555 155.824C63.8942 155.516 64.1835 155.101 64.3235 154.578H65.3595C65.1729 155.325 64.7715 155.936 64.1555 156.412C63.5489 156.879 62.7835 157.112 61.8595 157.112C61.1409 157.112 60.4969 156.953 59.9275 156.636C59.3582 156.309 58.9102 155.852 58.5835 155.264C58.2662 154.667 58.1075 153.971 58.1075 153.178C58.1075 152.385 58.2662 151.689 58.5835 151.092C58.9009 150.495 59.3442 150.037 59.9135 149.72C60.4829 149.403 61.1315 149.244 61.8595 149.244C62.5875 149.244 63.2222 149.403 63.7635 149.72C64.3142 150.037 64.7342 150.467 65.0235 151.008C65.3222 151.54 65.4715 152.133 65.4715 152.786ZM64.4775 152.758C64.4869 152.189 64.3702 151.703 64.1275 151.302C63.8942 150.901 63.5722 150.597 63.1615 150.392C62.7509 150.187 62.3029 150.084 61.8175 150.084C61.0895 150.084 60.4689 150.317 59.9555 150.784C59.4422 151.251 59.1575 151.909 59.1015 152.758H64.4775ZM70.8485 149.216C71.7632 149.216 72.5099 149.501 73.0885 150.07C73.6672 150.63 73.9565 151.447 73.9565 152.52V157H72.9905V152.632C72.9905 151.801 72.7805 151.167 72.3605 150.728C71.9499 150.289 71.3852 150.07 70.6665 150.07C69.9292 150.07 69.3412 150.303 68.9025 150.77C68.4639 151.237 68.2445 151.923 68.2445 152.828V157H67.2645V149.356H68.2445V150.658C68.4872 150.191 68.8372 149.837 69.2945 149.594C69.7519 149.342 70.2699 149.216 70.8485 149.216ZM75.6759 153.178C75.6759 152.385 75.8346 151.694 76.1519 151.106C76.4692 150.509 76.9079 150.051 77.4679 149.734C78.0279 149.407 78.6672 149.244 79.3859 149.244C80.3286 149.244 81.1032 149.477 81.7099 149.944C82.3259 150.411 82.7226 151.045 82.8999 151.848H81.8499C81.7192 151.297 81.4346 150.868 80.9959 150.56C80.5666 150.243 80.0299 150.084 79.3859 150.084C78.8726 150.084 78.4106 150.201 77.9999 150.434C77.5892 150.667 77.2626 151.017 77.0199 151.484C76.7866 151.941 76.6699 152.506 76.6699 153.178C76.6699 153.85 76.7866 154.419 77.0199 154.886C77.2626 155.353 77.5892 155.703 77.9999 155.936C78.4106 156.169 78.8726 156.286 79.3859 156.286C80.0299 156.286 80.5666 156.132 80.9959 155.824C81.4346 155.507 81.7192 155.068 81.8499 154.508H82.8999C82.7226 155.292 82.3259 155.922 81.7099 156.398C81.0939 156.874 80.3192 157.112 79.3859 157.112C78.6672 157.112 78.0279 156.953 77.4679 156.636C76.9079 156.309 76.4692 155.852 76.1519 155.264C75.8346 154.667 75.6759 153.971 75.6759 153.178ZM91.6258 152.786C91.6258 153.122 91.6165 153.379 91.5978 153.556H85.2558C85.2838 154.135 85.4238 154.629 85.6758 155.04C85.9278 155.451 86.2592 155.763 86.6698 155.978C87.0805 156.183 87.5285 156.286 88.0138 156.286C88.6485 156.286 89.1805 156.132 89.6098 155.824C90.0485 155.516 90.3378 155.101 90.4778 154.578H91.5138C91.3272 155.325 90.9258 155.936 90.3098 156.412C89.7032 156.879 88.9378 157.112 88.0138 157.112C87.2952 157.112 86.6512 156.953 86.0818 156.636C85.5125 156.309 85.0645 155.852 84.7378 155.264C84.4205 154.667 84.2618 153.971 84.2618 153.178C84.2618 152.385 84.4205 151.689 84.7378 151.092C85.0552 150.495 85.4985 150.037 86.0678 149.72C86.6372 149.403 87.2858 149.244 88.0138 149.244C88.7418 149.244 89.3765 149.403 89.9178 149.72C90.4685 150.037 90.8885 150.467 91.1778 151.008C91.4765 151.54 91.6258 152.133 91.6258 152.786ZM90.6318 152.758C90.6412 152.189 90.5245 151.703 90.2818 151.302C90.0485 150.901 89.7265 150.597 89.3158 150.392C88.9052 150.187 88.4572 150.084 87.9718 150.084C87.2438 150.084 86.6232 150.317 86.1098 150.784C85.5965 151.251 85.3118 151.909 85.2558 152.758H90.6318ZM96.8126 153.164C96.8126 152.38 96.9666 151.694 97.2746 151.106C97.592 150.509 98.026 150.051 98.5766 149.734C99.1366 149.407 99.7666 149.244 100.467 149.244C101.195 149.244 101.82 149.412 102.343 149.748C102.875 150.084 103.257 150.513 103.491 151.036V149.356H104.471V157H103.491V155.306C103.248 155.829 102.861 156.263 102.329 156.608C101.806 156.944 101.181 157.112 100.453 157.112C99.762 157.112 99.1366 156.949 98.5766 156.622C98.026 156.295 97.592 155.833 97.2746 155.236C96.9666 154.639 96.8126 153.948 96.8126 153.164ZM103.491 153.178C103.491 152.562 103.365 152.021 103.113 151.554C102.861 151.087 102.515 150.728 102.077 150.476C101.647 150.224 101.171 150.098 100.649 150.098C100.107 150.098 99.622 150.219 99.1926 150.462C98.7633 150.705 98.4226 151.059 98.1706 151.526C97.928 151.983 97.8066 152.529 97.8066 153.164C97.8066 153.789 97.928 154.34 98.1706 154.816C98.4226 155.283 98.7633 155.642 99.1926 155.894C99.622 156.137 100.107 156.258 100.649 156.258C101.171 156.258 101.647 156.132 102.077 155.88C102.515 155.628 102.861 155.269 103.113 154.802C103.365 154.335 103.491 153.794 103.491 153.178ZM109.914 149.244C110.633 149.244 111.258 149.412 111.79 149.748C112.322 150.084 112.705 150.509 112.938 151.022V149.356H113.918V157.196C113.918 157.896 113.764 158.517 113.456 159.058C113.157 159.599 112.737 160.015 112.196 160.304C111.655 160.603 111.039 160.752 110.348 160.752C109.368 160.752 108.551 160.519 107.898 160.052C107.254 159.585 106.853 158.951 106.694 158.148H107.66C107.828 158.68 108.145 159.105 108.612 159.422C109.088 159.739 109.667 159.898 110.348 159.898C110.843 159.898 111.286 159.791 111.678 159.576C112.07 159.371 112.378 159.063 112.602 158.652C112.826 158.241 112.938 157.756 112.938 157.196V155.306C112.695 155.829 112.308 156.263 111.776 156.608C111.253 156.944 110.633 157.112 109.914 157.112C109.214 157.112 108.584 156.949 108.024 156.622C107.473 156.295 107.039 155.833 106.722 155.236C106.414 154.639 106.26 153.948 106.26 153.164C106.26 152.38 106.414 151.694 106.722 151.106C107.039 150.509 107.473 150.051 108.024 149.734C108.584 149.407 109.214 149.244 109.914 149.244ZM112.938 153.178C112.938 152.562 112.812 152.021 112.56 151.554C112.308 151.087 111.963 150.728 111.524 150.476C111.095 150.224 110.619 150.098 110.096 150.098C109.555 150.098 109.069 150.219 108.64 150.462C108.211 150.705 107.87 151.059 107.618 151.526C107.375 151.983 107.254 152.529 107.254 153.164C107.254 153.789 107.375 154.34 107.618 154.816C107.87 155.283 108.211 155.642 108.64 155.894C109.069 156.137 109.555 156.258 110.096 156.258C110.619 156.258 111.095 156.132 111.524 155.88C111.963 155.628 112.308 155.269 112.56 154.802C112.812 154.335 112.938 153.794 112.938 153.178ZM115.707 153.164C115.707 152.38 115.861 151.694 116.169 151.106C116.486 150.509 116.92 150.051 117.471 149.734C118.031 149.407 118.661 149.244 119.361 149.244C120.089 149.244 120.714 149.412 121.237 149.748C121.769 150.084 122.152 150.513 122.385 151.036V149.356H123.365V157H122.385V155.306C122.142 155.829 121.755 156.263 121.223 156.608C120.7 156.944 120.075 157.112 119.347 157.112C118.656 157.112 118.031 156.949 117.471 156.622C116.92 156.295 116.486 155.833 116.169 155.236C115.861 154.639 115.707 153.948 115.707 153.164ZM122.385 153.178C122.385 152.562 122.259 152.021 122.007 151.554C121.755 151.087 121.41 150.728 120.971 150.476C120.542 150.224 120.066 150.098 119.543 150.098C119.002 150.098 118.516 150.219 118.087 150.462C117.658 150.705 117.317 151.059 117.065 151.526C116.822 151.983 116.701 152.529 116.701 153.164C116.701 153.789 116.822 154.34 117.065 154.816C117.317 155.283 117.658 155.642 118.087 155.894C118.516 156.137 119.002 156.258 119.543 156.258C120.066 156.258 120.542 156.132 120.971 155.88C121.41 155.628 121.755 155.269 122.007 154.802C122.259 154.335 122.385 153.794 122.385 153.178ZM126.092 147.914C125.896 147.914 125.728 147.844 125.588 147.704C125.448 147.564 125.378 147.391 125.378 147.186C125.378 146.981 125.448 146.813 125.588 146.682C125.728 146.542 125.896 146.472 126.092 146.472C126.288 146.472 126.456 146.542 126.596 146.682C126.736 146.813 126.806 146.981 126.806 147.186C126.806 147.391 126.736 147.564 126.596 147.704C126.456 147.844 126.288 147.914 126.092 147.914ZM126.582 149.356V157H125.602V149.356H126.582ZM132.386 149.216C133.3 149.216 134.047 149.501 134.626 150.07C135.204 150.63 135.494 151.447 135.494 152.52V157H134.528V152.632C134.528 151.801 134.318 151.167 133.898 150.728C133.487 150.289 132.922 150.07 132.204 150.07C131.466 150.07 130.878 150.303 130.44 150.77C130.001 151.237 129.782 151.923 129.782 152.828V157H128.802V149.356H129.782V150.658C130.024 150.191 130.374 149.837 130.832 149.594C131.289 149.342 131.807 149.216 132.386 149.216ZM140.293 157.112C139.416 157.112 138.697 156.911 138.137 156.51C137.586 156.099 137.278 155.544 137.213 154.844H138.221C138.268 155.273 138.468 155.623 138.823 155.894C139.187 156.155 139.672 156.286 140.279 156.286C140.811 156.286 141.226 156.16 141.525 155.908C141.833 155.656 141.987 155.343 141.987 154.97C141.987 154.709 141.903 154.494 141.735 154.326C141.567 154.158 141.352 154.027 141.091 153.934C140.839 153.831 140.494 153.724 140.055 153.612C139.486 153.463 139.024 153.313 138.669 153.164C138.314 153.015 138.011 152.795 137.759 152.506C137.516 152.207 137.395 151.811 137.395 151.316C137.395 150.943 137.507 150.597 137.731 150.28C137.955 149.963 138.272 149.711 138.683 149.524C139.094 149.337 139.56 149.244 140.083 149.244C140.904 149.244 141.567 149.454 142.071 149.874C142.575 150.285 142.846 150.854 142.883 151.582H141.903C141.875 151.134 141.698 150.775 141.371 150.504C141.054 150.224 140.615 150.084 140.055 150.084C139.56 150.084 139.159 150.201 138.851 150.434C138.543 150.667 138.389 150.957 138.389 151.302C138.389 151.601 138.478 151.848 138.655 152.044C138.842 152.231 139.07 152.38 139.341 152.492C139.612 152.595 139.976 152.711 140.433 152.842C140.984 152.991 141.422 153.136 141.749 153.276C142.076 153.416 142.356 153.621 142.589 153.892C142.822 154.163 142.944 154.522 142.953 154.97C142.953 155.381 142.841 155.749 142.617 156.076C142.393 156.393 142.08 156.645 141.679 156.832C141.278 157.019 140.816 157.112 140.293 157.112ZM146.072 150.182V154.928C146.072 155.395 146.16 155.717 146.338 155.894C146.515 156.071 146.828 156.16 147.276 156.16H148.172V157H147.122C146.431 157 145.918 156.841 145.582 156.524C145.246 156.197 145.078 155.665 145.078 154.928V150.182H144.014V149.356H145.078V147.438H146.072V149.356H148.172V150.182H146.072ZM163.71 149.356L161.316 157H160.336L158.222 150.588L156.108 157H155.114L152.72 149.356H153.714L155.618 156.006L157.76 149.356H158.74L160.854 156.02L162.744 149.356H163.71ZM168.392 157.112C167.673 157.112 167.024 156.953 166.446 156.636C165.876 156.309 165.424 155.852 165.088 155.264C164.761 154.667 164.598 153.971 164.598 153.178C164.598 152.385 164.766 151.694 165.102 151.106C165.438 150.509 165.895 150.051 166.474 149.734C167.052 149.407 167.701 149.244 168.42 149.244C169.138 149.244 169.787 149.407 170.366 149.734C170.954 150.051 171.411 150.509 171.738 151.106C172.074 151.694 172.242 152.385 172.242 153.178C172.242 153.962 172.074 154.653 171.738 155.25C171.402 155.847 170.94 156.309 170.352 156.636C169.764 156.953 169.11 157.112 168.392 157.112ZM168.392 156.258C168.896 156.258 169.362 156.146 169.792 155.922C170.221 155.689 170.566 155.343 170.828 154.886C171.098 154.419 171.234 153.85 171.234 153.178C171.234 152.506 171.103 151.941 170.842 151.484C170.58 151.017 170.235 150.672 169.806 150.448C169.376 150.215 168.91 150.098 168.406 150.098C167.902 150.098 167.435 150.215 167.006 150.448C166.576 150.672 166.231 151.017 165.97 151.484C165.718 151.941 165.592 152.506 165.592 153.178C165.592 153.85 165.718 154.419 165.97 154.886C166.231 155.343 166.572 155.689 166.992 155.922C167.421 156.146 167.888 156.258 168.392 156.258ZM183.128 149.216C184.024 149.216 184.752 149.501 185.312 150.07C185.882 150.63 186.166 151.447 186.166 152.52V157H185.2V152.632C185.2 151.801 185 151.167 184.598 150.728C184.197 150.289 183.651 150.07 182.96 150.07C182.242 150.07 181.668 150.308 181.238 150.784C180.809 151.26 180.594 151.951 180.594 152.856V157H179.628V152.632C179.628 151.801 179.428 151.167 179.026 150.728C178.625 150.289 178.074 150.07 177.374 150.07C176.656 150.07 176.082 150.308 175.652 150.784C175.223 151.26 175.008 151.951 175.008 152.856V157H174.028V149.356H175.008V150.672C175.251 150.196 175.596 149.837 176.044 149.594C176.492 149.342 176.992 149.216 177.542 149.216C178.205 149.216 178.784 149.375 179.278 149.692C179.782 150.009 180.146 150.476 180.37 151.092C180.576 150.485 180.926 150.023 181.42 149.706C181.924 149.379 182.494 149.216 183.128 149.216ZM195.259 152.786C195.259 153.122 195.249 153.379 195.231 153.556H188.889C188.917 154.135 189.057 154.629 189.309 155.04C189.561 155.451 189.892 155.763 190.303 155.978C190.713 156.183 191.161 156.286 191.647 156.286C192.281 156.286 192.813 156.132 193.243 155.824C193.681 155.516 193.971 155.101 194.111 154.578H195.147C194.96 155.325 194.559 155.936 193.943 156.412C193.336 156.879 192.571 157.112 191.647 157.112C190.928 157.112 190.284 156.953 189.715 156.636C189.145 156.309 188.697 155.852 188.371 155.264C188.053 154.667 187.895 153.971 187.895 153.178C187.895 152.385 188.053 151.689 188.371 151.092C188.688 150.495 189.131 150.037 189.701 149.72C190.27 149.403 190.919 149.244 191.647 149.244C192.375 149.244 193.009 149.403 193.551 149.72C194.101 150.037 194.521 150.467 194.811 151.008C195.109 151.54 195.259 152.133 195.259 152.786ZM194.265 152.758C194.274 152.189 194.157 151.703 193.915 151.302C193.681 150.901 193.359 150.597 192.949 150.392C192.538 150.187 192.09 150.084 191.605 150.084C190.877 150.084 190.256 150.317 189.743 150.784C189.229 151.251 188.945 151.909 188.889 152.758H194.265ZM200.636 149.216C201.55 149.216 202.297 149.501 202.876 150.07C203.454 150.63 203.744 151.447 203.744 152.52V157H202.778V152.632C202.778 151.801 202.568 151.167 202.148 150.728C201.737 150.289 201.172 150.07 200.454 150.07C199.716 150.07 199.128 150.303 198.69 150.77C198.251 151.237 198.032 151.923 198.032 152.828V157H197.052V149.356H198.032V150.658C198.274 150.191 198.624 149.837 199.082 149.594C199.539 149.342 200.057 149.216 200.636 149.216ZM209.305 153.164C209.305 152.38 209.459 151.694 209.767 151.106C210.084 150.509 210.518 150.051 211.069 149.734C211.629 149.407 212.259 149.244 212.959 149.244C213.687 149.244 214.312 149.412 214.835 149.748C215.367 150.084 215.749 150.513 215.983 151.036V149.356H216.963V157H215.983V155.306C215.74 155.829 215.353 156.263 214.821 156.608C214.298 156.944 213.673 157.112 212.945 157.112C212.254 157.112 211.629 156.949 211.069 156.622C210.518 156.295 210.084 155.833 209.767 155.236C209.459 154.639 209.305 153.948 209.305 153.164ZM215.983 153.178C215.983 152.562 215.857 152.021 215.605 151.554C215.353 151.087 215.007 150.728 214.569 150.476C214.139 150.224 213.663 150.098 213.141 150.098C212.599 150.098 212.114 150.219 211.685 150.462C211.255 150.705 210.915 151.059 210.663 151.526C210.42 151.983 210.299 152.529 210.299 153.164C210.299 153.789 210.42 154.34 210.663 154.816C210.915 155.283 211.255 155.642 211.685 155.894C212.114 156.137 212.599 156.258 213.141 156.258C213.663 156.258 214.139 156.132 214.569 155.88C215.007 155.628 215.353 155.269 215.605 154.802C215.857 154.335 215.983 153.794 215.983 153.178ZM222.784 149.216C223.699 149.216 224.445 149.501 225.024 150.07C225.603 150.63 225.892 151.447 225.892 152.52V157H224.926V152.632C224.926 151.801 224.716 151.167 224.296 150.728C223.885 150.289 223.321 150.07 222.602 150.07C221.865 150.07 221.277 150.303 220.838 150.77C220.399 151.237 220.18 151.923 220.18 152.828V157H219.2V149.356H220.18V150.658C220.423 150.191 220.773 149.837 221.23 149.594C221.687 149.342 222.205 149.216 222.784 149.216ZM227.611 153.164C227.611 152.38 227.77 151.694 228.087 151.106C228.405 150.509 228.839 150.051 229.389 149.734C229.949 149.407 230.579 149.244 231.279 149.244C231.951 149.244 232.558 149.407 233.099 149.734C233.641 150.061 234.037 150.485 234.289 151.008V146.64H235.269V157H234.289V155.292C234.056 155.824 233.673 156.263 233.141 156.608C232.609 156.944 231.984 157.112 231.265 157.112C230.565 157.112 229.935 156.949 229.375 156.622C228.825 156.295 228.391 155.833 228.073 155.236C227.765 154.639 227.611 153.948 227.611 153.164ZM234.289 153.178C234.289 152.562 234.163 152.021 233.911 151.554C233.659 151.087 233.314 150.728 232.875 150.476C232.446 150.224 231.97 150.098 231.447 150.098C230.906 150.098 230.421 150.219 229.991 150.462C229.562 150.705 229.221 151.059 228.969 151.526C228.727 151.983 228.605 152.529 228.605 153.164C228.605 153.789 228.727 154.34 228.969 154.816C229.221 155.283 229.562 155.642 229.991 155.894C230.421 156.137 230.906 156.258 231.447 156.258C231.97 156.258 232.446 156.132 232.875 155.88C233.314 155.628 233.659 155.269 233.911 154.802C234.163 154.335 234.289 153.794 234.289 153.178ZM244.555 149.244C245.273 149.244 245.899 149.412 246.431 149.748C246.963 150.084 247.345 150.509 247.579 151.022V149.356H248.559V157.196C248.559 157.896 248.405 158.517 248.097 159.058C247.798 159.599 247.378 160.015 246.837 160.304C246.295 160.603 245.679 160.752 244.989 160.752C244.009 160.752 243.192 160.519 242.539 160.052C241.895 159.585 241.493 158.951 241.335 158.148H242.301C242.469 158.68 242.786 159.105 243.253 159.422C243.729 159.739 244.307 159.898 244.989 159.898C245.483 159.898 245.927 159.791 246.319 159.576C246.711 159.371 247.019 159.063 247.243 158.652C247.467 158.241 247.579 157.756 247.579 157.196V155.306C247.336 155.829 246.949 156.263 246.417 156.608C245.894 156.944 245.273 157.112 244.555 157.112C243.855 157.112 243.225 156.949 242.665 156.622C242.114 156.295 241.68 155.833 241.363 155.236C241.055 154.639 240.901 153.948 240.901 153.164C240.901 152.38 241.055 151.694 241.363 151.106C241.68 150.509 242.114 150.051 242.665 149.734C243.225 149.407 243.855 149.244 244.555 149.244ZM247.579 153.178C247.579 152.562 247.453 152.021 247.201 151.554C246.949 151.087 246.603 150.728 246.165 150.476C245.735 150.224 245.259 150.098 244.737 150.098C244.195 150.098 243.71 150.219 243.281 150.462C242.851 150.705 242.511 151.059 242.259 151.526C242.016 151.983 241.895 152.529 241.895 153.164C241.895 153.789 242.016 154.34 242.259 154.816C242.511 155.283 242.851 155.642 243.281 155.894C243.71 156.137 244.195 156.258 244.737 156.258C245.259 156.258 245.735 156.132 246.165 155.88C246.603 155.628 246.949 155.269 247.201 154.802C247.453 154.335 247.579 153.794 247.579 153.178ZM251.286 147.914C251.09 147.914 250.922 147.844 250.782 147.704C250.642 147.564 250.572 147.391 250.572 147.186C250.572 146.981 250.642 146.813 250.782 146.682C250.922 146.542 251.09 146.472 251.286 146.472C251.482 146.472 251.65 146.542 251.79 146.682C251.93 146.813 252 146.981 252 147.186C252 147.391 251.93 147.564 251.79 147.704C251.65 147.844 251.482 147.914 251.286 147.914ZM251.776 149.356V157H250.796V149.356H251.776ZM254.975 150.714C255.19 150.238 255.516 149.869 255.955 149.608C256.403 149.347 256.949 149.216 257.593 149.216V150.238H257.327C256.618 150.238 256.048 150.429 255.619 150.812C255.19 151.195 254.975 151.834 254.975 152.73V157H253.995V149.356H254.975V150.714ZM260.047 146.64V157H259.067V146.64H260.047ZM264.898 157.112C264.021 157.112 263.302 156.911 262.742 156.51C262.192 156.099 261.884 155.544 261.818 154.844H262.826C262.873 155.273 263.074 155.623 263.428 155.894C263.792 156.155 264.278 156.286 264.884 156.286C265.416 156.286 265.832 156.16 266.13 155.908C266.438 155.656 266.592 155.343 266.592 154.97C266.592 154.709 266.508 154.494 266.34 154.326C266.172 154.158 265.958 154.027 265.696 153.934C265.444 153.831 265.099 153.724 264.66 153.612C264.091 153.463 263.629 153.313 263.274 153.164C262.92 153.015 262.616 152.795 262.364 152.506C262.122 152.207 262 151.811 262 151.316C262 150.943 262.112 150.597 262.336 150.28C262.56 149.963 262.878 149.711 263.288 149.524C263.699 149.337 264.166 149.244 264.688 149.244C265.51 149.244 266.172 149.454 266.676 149.874C267.18 150.285 267.451 150.854 267.488 151.582H266.508C266.48 151.134 266.303 150.775 265.976 150.504C265.659 150.224 265.22 150.084 264.66 150.084C264.166 150.084 263.764 150.201 263.456 150.434C263.148 150.667 262.994 150.957 262.994 151.302C262.994 151.601 263.083 151.848 263.26 152.044C263.447 152.231 263.676 152.38 263.946 152.492C264.217 152.595 264.581 152.711 265.038 152.842C265.589 152.991 266.028 153.136 266.354 153.276C266.681 153.416 266.961 153.621 267.194 153.892C267.428 154.163 267.549 154.522 267.558 154.97C267.558 155.381 267.446 155.749 267.222 156.076C266.998 156.393 266.686 156.645 266.284 156.832C265.883 157.019 265.421 157.112 264.898 157.112Z" fill="#34445C"/>
<g clip-path="url(#clip0)">
<path d="M79.5386 70.2383L69.1642 52.6488C68.2759 51.128 66.9577 49.9332 65.4716 49.301L64.8076 49.0188C62.5173 48.0441 60.1994 48.8076 59.1605 50.8795C58.3395 52.5164 58.4223 54.6699 59.38 56.5872L71.4937 80.8405C71.9679 81.7902 72.5412 82.6889 73.1999 83.5163C74.5424 85.2014 76.203 86.5405 78.0139 87.398L80.1104 88.3918C80.3955 88.527 80.684 88.6492 80.9736 88.759L103.146 97.1683C104.75 97.7767 106.338 98.4827 107.901 99.283L113.942 102.376L129.422 93.7948C129.422 93.7948 124.232 76.0758 108.857 74.7993C105.982 74.5607 103.075 73.8651 100.218 72.7816L85.6455 67.2548C84.1738 66.6966 82.6694 66.7954 81.478 67.529C79.2741 68.8871 78.6437 72.0681 80.0062 74.9598L80.0517 75.0577C80.8736 76.8014 82.3068 78.1779 83.9489 78.8007L96.6352 83.6121" fill="#34445C"/>
</g>
<g clip-path="url(#clip1)">
<path d="M176.852 69.9492L186.865 51.9777C187.722 50.4242 189.011 49.1834 190.476 48.5012L191.131 48.1968C193.388 47.145 195.702 47.835 196.768 49.8783C197.61 51.4925 197.563 53.6541 196.643 55.6074L185.013 80.316C184.558 81.2835 184.003 82.2031 183.363 83.0541C182.058 84.7871 180.431 86.1836 178.647 87.1023L176.581 88.1668C176.301 88.3116 176.016 88.4435 175.731 88.5631L153.854 97.7153C152.271 98.3775 150.706 99.137 149.168 99.9901L143.22 103.287L127.711 95.1889C127.711 95.1889 132.574 77.2564 147.818 75.4761C150.669 75.1434 153.544 74.3514 156.362 73.1721L170.74 67.1569C172.192 66.5495 173.687 66.5995 174.882 67.2962C177.093 68.5859 177.771 71.7544 176.465 74.6978L176.422 74.7973C175.634 76.5722 174.234 77.9987 172.614 78.6766L160.097 83.9132" fill="#F2D1A5"/>
</g>
<g clip-path="url(#clip2)">
<path d="M145.795 5.01724C139.04 5.01783 132.81 8.66268 129.501 14.5516C126.193 8.66268 119.963 5.01783 113.208 5.01724C102.877 5.01724 94.5015 14.5999 94.5015 24.931C94.5015 50.8793 129.501 68.9828 129.501 68.9828C129.501 68.9828 164.501 50.8793 164.501 24.931C164.501 14.5999 156.126 5.01724 145.795 5.01724Z" fill="#FF6243"/>
<path d="M99.3291 24.931C99.3291 15.3725 106.503 6.47165 115.757 5.19109C114.913 5.075 114.061 5.01666 113.208 5.01725C102.877 5.01725 94.5015 14.5999 94.5015 24.931C94.5015 50.8793 129.501 68.9828 129.501 68.9828C129.501 68.9828 130.407 68.5131 131.915 67.6262C124.008 62.976 99.3291 46.7229 99.3291 24.931Z" fill="#FF5023"/>
</g>
<path d="M64.904 109.728L56.156 126.648V135H50V126.648L41.252 109.728H48.236L53.132 120.312L57.992 109.728H64.904ZM76.5283 135.288C74.5603 135.288 72.7843 134.868 71.2003 134.028C69.6403 133.188 68.4043 131.988 67.4923 130.428C66.6043 128.868 66.1603 127.044 66.1603 124.956C66.1603 122.892 66.6163 121.08 67.5283 119.52C68.4403 117.936 69.6883 116.724 71.2723 115.884C72.8563 115.044 74.6323 114.624 76.6003 114.624C78.5683 114.624 80.3443 115.044 81.9283 115.884C83.5123 116.724 84.7603 117.936 85.6723 119.52C86.5843 121.08 87.0403 122.892 87.0403 124.956C87.0403 127.02 86.5723 128.844 85.6363 130.428C84.7243 131.988 83.4643 133.188 81.8563 134.028C80.2723 134.868 78.4963 135.288 76.5283 135.288ZM76.5283 129.96C77.7043 129.96 78.7003 129.528 79.5163 128.664C80.3563 127.8 80.7763 126.564 80.7763 124.956C80.7763 123.348 80.3683 122.112 79.5523 121.248C78.7603 120.384 77.7763 119.952 76.6003 119.952C75.4003 119.952 74.4043 120.384 73.6123 121.248C72.8203 122.088 72.4243 123.324 72.4243 124.956C72.4243 126.564 72.8083 127.8 73.5763 128.664C74.3683 129.528 75.3523 129.96 76.5283 129.96ZM110.142 114.912V135H103.986V132.264C103.362 133.152 102.51 133.872 101.43 134.424C100.374 134.952 99.1982 135.216 97.9022 135.216C96.3662 135.216 95.0102 134.88 93.8342 134.208C92.6582 133.512 91.7462 132.516 91.0982 131.22C90.4502 129.924 90.1262 128.4 90.1262 126.648V114.912H96.2462V125.82C96.2462 127.164 96.5942 128.208 97.2902 128.952C97.9862 129.696 98.9222 130.068 100.098 130.068C101.298 130.068 102.246 129.696 102.942 128.952C103.638 128.208 103.986 127.164 103.986 125.82V114.912H110.142ZM120.72 118.26C121.44 117.156 122.34 116.292 123.42 115.668C124.5 115.02 125.7 114.696 127.02 114.696V121.212H125.328C123.792 121.212 122.64 121.548 121.872 122.22C121.104 122.868 120.72 124.02 120.72 125.676V135H114.564V114.912H120.72V118.26ZM142.85 135L137.594 125.46H136.118V135H129.962V109.728H140.294C142.286 109.728 143.978 110.076 145.37 110.772C146.786 111.468 147.842 112.428 148.538 113.652C149.234 114.852 149.582 116.196 149.582 117.684C149.582 119.364 149.102 120.864 148.142 122.184C147.206 123.504 145.814 124.44 143.966 124.992L149.798 135H142.85ZM136.118 121.104H139.934C141.062 121.104 141.902 120.828 142.454 120.276C143.03 119.724 143.318 118.944 143.318 117.936C143.318 116.976 143.03 116.22 142.454 115.668C141.902 115.116 141.062 114.84 139.934 114.84H136.118V121.104ZM156.543 112.824C155.463 112.824 154.575 112.512 153.879 111.888C153.207 111.24 152.871 110.448 152.871 109.512C152.871 108.552 153.207 107.76 153.879 107.136C154.575 106.488 155.463 106.164 156.543 106.164C157.599 106.164 158.463 106.488 159.135 107.136C159.831 107.76 160.179 108.552 160.179 109.512C160.179 110.448 159.831 111.24 159.135 111.888C158.463 112.512 157.599 112.824 156.543 112.824ZM159.603 114.912V135H153.447V114.912H159.603ZM171.696 114.624C173.112 114.624 174.348 114.912 175.404 115.488C176.484 116.064 177.312 116.82 177.888 117.756V114.912H184.044V134.964C184.044 136.812 183.672 138.48 182.928 139.968C182.208 141.48 181.092 142.68 179.58 143.568C178.092 144.456 176.232 144.9 174 144.9C171.024 144.9 168.612 144.192 166.764 142.776C164.916 141.384 163.86 139.488 163.596 137.088H169.68C169.872 137.856 170.328 138.456 171.048 138.888C171.768 139.344 172.656 139.572 173.712 139.572C174.984 139.572 175.992 139.2 176.736 138.456C177.504 137.736 177.888 136.572 177.888 134.964V132.12C177.288 133.056 176.46 133.824 175.404 134.424C174.348 135 173.112 135.288 171.696 135.288C170.04 135.288 168.54 134.868 167.196 134.028C165.852 133.164 164.784 131.952 163.992 130.392C163.224 128.808 162.84 126.984 162.84 124.92C162.84 122.856 163.224 121.044 163.992 119.484C164.784 117.924 165.852 116.724 167.196 115.884C168.54 115.044 170.04 114.624 171.696 114.624ZM177.888 124.956C177.888 123.42 177.456 122.208 176.592 121.32C175.752 120.432 174.72 119.988 173.496 119.988C172.272 119.988 171.228 120.432 170.364 121.32C169.524 122.184 169.104 123.384 169.104 124.92C169.104 126.456 169.524 127.68 170.364 128.592C171.228 129.48 172.272 129.924 173.496 129.924C174.72 129.924 175.752 129.48 176.592 128.592C177.456 127.704 177.888 126.492 177.888 124.956ZM200.846 114.696C203.15 114.696 204.998 115.464 206.39 117C207.782 118.512 208.478 120.6 208.478 123.264V135H202.358V124.092C202.358 122.748 202.01 121.704 201.314 120.96C200.618 120.216 199.682 119.844 198.506 119.844C197.33 119.844 196.394 120.216 195.698 120.96C195.002 121.704 194.654 122.748 194.654 124.092V135H188.498V108.36H194.654V117.612C195.278 116.724 196.13 116.016 197.21 115.488C198.29 114.96 199.502 114.696 200.846 114.696ZM223.951 129.78V135H220.819C218.587 135 216.847 134.46 215.599 133.38C214.351 132.276 213.727 130.488 213.727 128.016V120.024H211.279V114.912H213.727V110.016H219.883V114.912H223.915V120.024H219.883V128.088C219.883 128.688 220.027 129.12 220.315 129.384C220.603 129.648 221.083 129.78 221.755 129.78H223.951Z" fill="#34445C"/>
<defs>
<clipPath id="clip0">
<rect width="100" height="100" transform="matrix(-0.935012 -0.354617 -0.150437 0.98862 138.545 37.4703)" fill="white"/>
</clipPath>
<clipPath id="clip1">
<rect width="100" height="100" transform="matrix(0.92252 -0.385949 0.16554 0.986203 116.501 38.5949)" fill="white"/>
</clipPath>
<clipPath id="clip2">
<rect x="94.5015" y="2" width="70" height="70" fill="white"/>
</clipPath>
</defs>
</svg>
