<svg width="508" height="508" viewBox="0 0 508 508" fill="none" xmlns="http://www.w3.org/2000/svg">
<g filter="url(#filter0_dd)">
<path d="M369.385 480.722V500H138.615V480.722C138.615 470.099 147.25 461.444 157.846 461.444H196.558C197.577 437.384 213.154 417.296 234.769 409.604V183.567C224.635 177.148 217.846 165.889 217.846 152.973H234.769H273.231H290.154C290.154 165.889 283.365 177.148 273.231 183.567V409.585C294.846 417.277 310.423 437.365 311.442 461.424H350.154C360.75 461.444 369.385 470.099 369.385 480.722ZM504 307.198C489.904 346.989 452.365 375.694 407.846 375.694C363.327 375.694 325.788 346.969 311.692 307.198H333.885L398.846 134.601C401.654 127.082 414.019 127.082 416.846 134.601L481.808 307.198H504V307.198ZM461.25 307.198L407.846 165.33L354.442 307.218H461.25V307.198ZM100.154 114.628C108.865 114.628 115.962 108.787 118.423 100.864C124.788 98.4346 131.308 95.1573 138 91.7643C152.712 84.3229 169.385 75.8598 186.692 75.8598C203.308 75.8598 213.692 83.5518 219.635 90.1064C219.404 91.7643 219.135 93.4223 219.135 95.138C219.135 114.436 234.75 130.089 254 130.089C273.25 130.089 288.865 114.436 288.865 95.138C288.865 93.4223 288.596 91.7836 288.365 90.1257C294.288 83.5904 304.673 75.8598 321.308 75.8598C338.615 75.8598 355.288 84.3037 369.981 91.7451C376.692 95.138 383.212 98.4153 389.577 100.844C392.038 108.768 399.135 114.609 407.846 114.609C418.577 114.609 427.269 105.895 427.269 95.138C427.269 84.3808 418.577 75.667 407.846 75.667C402.308 75.667 397.365 78.0575 393.827 81.7975C389.077 79.7926 383.942 77.2286 378.654 74.5489C362.038 66.1243 343.212 56.5816 321.308 56.5816C302.154 56.5816 288.808 63.888 279.75 71.7535C275.692 67.2617 270.5 63.9073 264.596 61.9988C271.769 58.1431 276.808 50.7981 276.808 42.1036C276.808 29.4764 254 0 254 0C254 0 231.192 29.4764 231.192 42.1036C231.192 50.8174 236.231 58.1431 243.404 61.9988C237.5 63.888 232.308 67.2617 228.25 71.7535C219.192 63.888 205.846 56.5816 186.692 56.5816C164.788 56.5816 145.942 66.1243 129.327 74.5489C124.038 77.2478 118.923 79.8118 114.173 81.7975C110.635 78.0768 105.692 75.667 100.154 75.667C89.4231 75.667 80.7308 84.3808 80.7308 95.138C80.7308 105.895 89.4231 114.628 100.154 114.628ZM100.154 375.713C55.6346 375.713 18.0962 346.989 4 307.218H26.1923L91.1539 134.62C93.9615 127.101 106.327 127.101 109.154 134.62L174.115 307.218H196.308C182.212 346.989 144.673 375.713 100.154 375.713ZM153.558 307.198L100.154 165.33L46.75 307.218H153.558V307.198Z" fill="#3F51B5"/>
</g>
<defs>
<filter id="filter0_dd" x="0" y="0" width="508" height="508" filterUnits="userSpaceOnUse" color-interpolation-filters="sRGB">
<feFlood flood-opacity="0" result="BackgroundImageFix"/>
<feColorMatrix in="SourceAlpha" type="matrix" values="0 0 0 0 0 0 0 0 0 0 0 0 0 0 0 0 0 0 127 0"/>
<feOffset dy="4"/>
<feGaussianBlur stdDeviation="2"/>
<feColorMatrix type="matrix" values="0 0 0 0 0 0 0 0 0 0 0 0 0 0 0 0 0 0 0.25 0"/>
<feBlend mode="normal" in2="BackgroundImageFix" result="effect1_dropShadow"/>
<feColorMatrix in="SourceAlpha" type="matrix" values="0 0 0 0 0 0 0 0 0 0 0 0 0 0 0 0 0 0 127 0"/>
<feOffset dy="4"/>
<feGaussianBlur stdDeviation="2"/>
<feColorMatrix type="matrix" values="0 0 0 0 0 0 0 0 0 0 0 0 0 0 0 0 0 0 0.25 0"/>
<feBlend mode="normal" in2="effect1_dropShadow" result="effect2_dropShadow"/>
<feBlend mode="normal" in="SourceGraphic" in2="effect2_dropShadow" result="shape"/>
</filter>
</defs>
</svg>
